<?xml version="1.0" encoding="utf-8"?>
<!-- Generator: Adobe Illustrator 18.0.0, SVG Export Plug-In . SVG Version: 6.00 Build 0)  -->
<!DOCTYPE svg PUBLIC "-//W3C//DTD SVG 1.1//EN" "http://www.w3.org/Graphics/SVG/1.1/DTD/svg11.dtd">
<svg version="1.1" id="Слой_1" xmlns="http://www.w3.org/2000/svg" xmlns:xlink="http://www.w3.org/1999/xlink" x="0px" y="0px"
	 width="22px" height="22px" viewBox="0 0 22 22" enable-background="new 0 0 22 22" xml:space="preserve">
<g transform="translate(0.000000,520.000000) scale(0.100000,-0.100000)">
	<path fill="#999999" d="M67,5173.3c-2.4-5.7-3.3-11.1-3.7-22.5c-0.3-9.6-0.3-10-1.5-11.2c-1.9-2.1-2.7-5.3-2.7-11.6
		c0-10.1,3.7-20,10.4-27.7c1.2-1.5,2.2-2.9,2.2-3.3c0-1.4,3.4-9.4,5.3-12.6l1.9-3.2l-9.3-4.6c-5.2-2.5-37.8-17.4-41.7-20.4
		c-8.8-6.8-16.6-21.8-20.2-38.5c-1.8-8.4-2.3-13.5-1.7-16.6c1-4.9,5.9-8.4,14.8-10.8c4.3-1.1,43.4-9.3,91.7-9.3
		c48.4,0,82.6,8.2,86.9,9.3c9,2.3,13.8,5.9,14.8,10.8c1,7.9-3.9,41-22,55.2c-12.1,7.9-28.7,16.7-51,25c4.9,8.8,7.2,14.4,7.2,15.7
		c0,0.4,0.9,1.8,2.1,3.2c3.3,3.8,7.1,10.6,8.7,15.6c1.4,4,1.6,5.5,1.8,11.1c0.2,7.2-0.4,10.5-2.6,12.8c-1.1,1.2-1.2,1.6-1.4,10.7
		c-0.2,5.2-0.6,11.5-1.1,13.9c-2.2,13.2-14.3,34.7-44.7,34.7C80.9,5199,72.8,5187.4,67,5173.3z M147.5,5148.2
		c0-9.9,0.5-12.2,0.8-12.8c0.2-0.6,3.1,0.6,3.7-5.2c0.6-5.8-1-9.9-1.8-11.9c-1.8-4.7-4.3-8.9-7-12c-2.1-2.5-2.9-3.9-4.2-7.8
		c-2-6-3.2-8.3-6.6-12.8c-2.9-3.8-2.4-6.7-0.2-9c2.2-2.2,43.2-17.4,54.1-28c11.3-7.2,17.6-35.6,18.3-40.9c0.6-4.8,0.5-5.1-3.2-6.7
		c-2.6-1.1-42.6-10.3-89.1-10.3s-89.6,8.6-93.4,10.3c-3.7,1.7-3.8,1.9-3.2,6.7c2.2,16.5,8.9,32,17,39.7
		c17.5,13.4,53.5,26.7,55.9,29.2c2.4,2.4,2.1,5.2,0,8c-3.4,4.5-5.6,8.8-7.3,13.7c-1.3,3.8-2.1,5.3-4.2,7.8
		c-2.8,3.3-5.8,8.7-7.4,13.4c-0.8,2.3-1,13.2,0.3,13.8c0.7,0.3,1.6,1.1,1.9,1.8c0.3,0.7,0.7,5.7,0.9,12.7c0,20.1,4.2,41.4,36.8,41.4
		S147.5,5166.2,147.5,5148.2z"/>
</g>
</svg>
